<?xml version="1.0" standalone="no"?>
<!DOCTYPE svg PUBLIC "-//W3C//DTD SVG 20010904//EN"
 "http://www.w3.org/TR/2001/REC-SVG-20010904/DTD/svg10.dtd">
<svg version="1.0" xmlns="http://www.w3.org/2000/svg"
 width="1024.000000pt" height="1024.000000pt" viewBox="0 0 1024.000000 1024.000000"
 preserveAspectRatio="xMidYMid meet">
<metadata>
Created by potrace 1.11, written by Peter Selinger 2001-2013
</metadata>
<g transform="translate(0.000000,1024.000000) scale(0.100000,-0.100000)"
fill="#000000" stroke="none">
<path d="M2669 10236 c-2 -2 -76 -7 -164 -10 -230 -10 -310 -17 -490 -41 -91
-13 -307 -54 -365 -70 -315 -86 -544 -202 -788 -397 -278 -222 -481 -486 -634
-823 -89 -198 -169 -549 -193 -845 -4 -41 -8 -93 -10 -115 -2 -22 -8 -114 -12
-205 -10 -210 -11 -5028 0 -5215 16 -303 29 -431 63 -620 32 -181 31 -177 66
-305 31 -116 94 -276 144 -366 73 -134 92 -165 147 -244 165 -235 370 -435
587 -574 25 -16 57 -37 72 -47 34 -23 284 -149 296 -149 5 0 23 -7 40 -16 56
-27 389 -114 439 -114 5 0 69 75 143 168 74 92 137 169 140 172 3 3 35 41 70
85 35 44 67 82 70 85 3 3 58 70 122 150 132 165 113 141 542 670 176 217 359
442 406 500 47 58 89 110 93 117 5 8 -18 11 -85 11 -51 0 -103 0 -115 1 l-22
1 0 2668 1 2667 166 201 c242 292 324 393 347 425 11 16 31 32 45 36 14 3 738
6 1610 7 l1585 0 155 189 c85 104 160 195 165 201 6 6 30 36 55 66 25 30 47
57 50 60 3 3 21 25 40 50 19 25 40 50 46 55 6 6 40 46 75 90 35 44 74 91 85
105 12 14 79 95 149 180 70 85 142 173 161 195 18 22 69 85 114 140 46 55 99
120 120 145 21 25 74 90 119 145 46 55 90 109 99 120 10 11 48 58 86 105 38
47 91 111 118 142 27 31 45 59 41 61 -8 5 -121 36 -158 43 -11 2 -54 10 -95
19 -41 8 -95 17 -120 20 -25 3 -56 8 -70 10 -14 3 -50 7 -80 10 -30 3 -66 8
-80 10 -14 2 -70 7 -125 10 -55 4 -127 9 -160 12 -68 6 -5100 14 -5106 9z"/>
<path d="M8569 9572 c-193 -235 -368 -447 -389 -472 -21 -25 -115 -139 -210
-255 -94 -115 -189 -230 -210 -255 -21 -25 -129 -155 -240 -290 -111 -135
-216 -263 -235 -285 -31 -38 -101 -123 -270 -330 -40 -49 -158 -193 -262 -320
l-189 -230 -1147 0 c-631 0 -1148 -2 -1148 -5 -2 -7 -4 -2090 -3 -2090 1 0 35
39 75 86 41 48 79 92 84 98 6 6 35 40 65 76 30 36 60 70 65 76 6 7 25 31 44
54 19 23 53 62 75 87 l41 45 1103 0 c607 0 1105 -2 1107 -4 4 -3 -175 -226
-367 -459 -20 -24 -76 -93 -125 -153 -48 -60 -113 -139 -143 -175 l-55 -67
-970 1 c-534 0 -977 -1 -985 -3 -13 -3 -15 -126 -15 -1039 l0 -1036 -34 -46
c-19 -25 -38 -48 -41 -51 -3 -3 -35 -41 -70 -85 -35 -44 -67 -82 -70 -85 -3
-3 -40 -48 -82 -100 -42 -52 -221 -273 -398 -490 -405 -497 -349 -429 -598
-734 -117 -144 -256 -314 -308 -378 -52 -64 -100 -123 -107 -130 -6 -7 -50
-60 -96 -118 -47 -58 -131 -162 -188 -232 -57 -70 -103 -131 -103 -136 0 -4
21 -10 48 -11 26 -1 70 -4 97 -7 28 -2 113 -7 190 -11 179 -10 5010 -10 5210
-1 181 9 285 16 345 23 110 13 139 17 205 26 95 14 99 15 190 34 44 9 89 19
101 21 11 2 67 18 124 35 219 64 426 169 625 315 96 70 121 90 216 180 294
274 530 685 605 1049 2 11 6 29 8 40 27 131 35 176 40 210 4 22 8 54 11 70 7
46 13 103 20 185 4 41 8 86 11 99 15 98 19 696 19 2826 0 2114 -4 2695 -20
2818 -2 15 -6 62 -10 105 -3 42 -8 86 -10 97 -2 11 -7 47 -10 80 -4 32 -8 62
-10 65 -1 3 -6 28 -10 55 -7 58 -35 186 -65 297 -96 366 -353 768 -650 1017
-30 25 -57 49 -60 52 -12 14 -160 119 -220 156 -65 41 -172 98 -222 120 -27
12 -28 10 -379 -415z"/>
</g>
</svg>
