<?xml version="1.0" standalone="no"?>
<!DOCTYPE svg PUBLIC "-//W3C//DTD SVG 20010904//EN"
 "http://www.w3.org/TR/2001/REC-SVG-20010904/DTD/svg10.dtd">
<svg version="1.0" xmlns="http://www.w3.org/2000/svg"
 width="196.000000pt" height="196.000000pt" viewBox="0 0 196.000000 196.000000"
 preserveAspectRatio="xMidYMid meet">
<metadata>
Created by potrace 1.11, written by Peter Selinger 2001-2013
</metadata>
<g transform="translate(0.000000,196.000000) scale(0.100000,-0.100000)"
fill="#000000" stroke="none">
<path d="M855 1953 c-329 -46 -618 -257 -760 -555 -19 -40 -35 -78 -35 -85 0
-16 61 -27 103 -19 55 10 94 42 146 118 90 133 192 223 322 285 120 58 208 77
354 77 118 0 139 -3 232 -32 55 -18 116 -32 134 -32 64 0 163 69 144 101 -18
28 -204 103 -320 130 -51 11 -266 19 -320 12z"/>
<path d="M815 1691 c-168 -41 -315 -137 -416 -270 -87 -113 -135 -243 -146
-388 l-6 -83 26 0 c40 0 90 28 114 63 12 18 29 61 38 97 49 192 186 344 366
407 38 13 87 26 109 28 22 3 59 7 81 10 23 3 56 16 74 29 29 23 65 80 65 104
0 26 -202 29 -305 3z"/>
<path d="M761 1418 c-200 -100 -312 -339 -262 -558 15 -63 33 -110 43 -110 12
0 68 51 79 72 6 11 11 62 10 112 -2 153 40 247 149 331 64 50 94 104 84 155
-8 38 -22 38 -103 -2z"/>
<path d="M1155 1186 c-23 -35 -24 -75 -2 -126 10 -25 20 -70 22 -100 2 -30 3
-60 4 -67 2 -18 51 -73 66 -73 18 0 45 74 49 135 6 88 -49 216 -105 246 -14 7
-22 4 -34 -15z"/>
<path d="M1409 1173 c-45 -27 -59 -68 -59 -168 1 -104 -2 -118 -29 -179 -28
-64 -63 -108 -126 -156 -60 -46 -88 -100 -79 -150 8 -38 21 -38 103 2 124 61
230 196 261 333 18 79 14 191 -11 268 -12 37 -24 67 -28 67 -3 0 -18 -8 -32
-17z"/>
<path d="M717 1113 c-17 -29 -35 -120 -32 -164 5 -63 54 -169 92 -199 23 -18
29 -19 41 -6 26 26 30 77 9 131 -10 28 -20 77 -22 111 -3 67 -14 95 -47 118
-25 18 -35 20 -41 9z"/>
<path d="M1624 991 c-47 -29 -70 -64 -88 -138 -49 -194 -186 -347 -368 -410
-38 -13 -91 -26 -116 -29 -88 -10 -99 -12 -129 -28 -35 -18 -69 -60 -78 -98
-6 -24 -4 -26 40 -32 158 -24 343 18 485 110 88 57 123 88 180 159 92 116 146
253 157 403 l6 82 -29 0 c-16 0 -43 -9 -60 -19z"/>
<path d="M1745 647 c-25 -14 -57 -48 -87 -92 -109 -160 -247 -269 -422 -332
-140 -50 -332 -53 -481 -7 -126 38 -165 41 -220 14 -54 -26 -83 -63 -66 -83
30 -38 246 -119 356 -134 64 -10 235 -10 300 -1 313 43 600 257 740 550 19 40
35 78 35 84 0 31 -102 31 -155 1z"/>
</g>
</svg>
